# xmcd CD database file
#
# Track frame offsets:
#	150
#	21085
#	40270
#	64700
#	88735
#
# Disc length: 1414 seconds
#
# Revision: 0
# Processed by: cddbd v1.5.1PL0 Copyright (c) Steve Scherf et al.
# Submitted via: CDex 1.51
#
DISCID=38058405
DTITLE=FLIP FLAP - FLIP FLAP e.p.
DYEAR=1999
DGENRE=JPop
TTITLE0=バランス
TTITLE1=旅行に行こう
TTITLE2=小さな光
TTITLE3=あなただけ見ているの
TTITLE4=たんぽぽ 〜flor amarela〜
EXTD=YEAR: 1999
EXTT0=
EXTT1=
EXTT2=
EXTT3=
EXTT4=
PLAYORDER=
